<?xml version="1.0" standalone="no"?>
<!DOCTYPE svg PUBLIC "-//W3C//DTD SVG 20010904//EN"
 "http://www.w3.org/TR/2001/REC-SVG-20010904/DTD/svg10.dtd">
<svg version="1.0" xmlns="http://www.w3.org/2000/svg"
 width="512.000000pt" height="512.000000pt" viewBox="0 0 512.000000 512.000000"
 preserveAspectRatio="xMidYMid meet">

<g transform="translate(0.000000,512.000000) scale(0.100000,-0.100000)"
fill="#000000" stroke="none">
<path d="M1080 4370 c-71 -8 -194 -47 -280 -87 -180 -84 -373 -260 -465 -423
-40 -71 -88 -177 -101 -223 -47 -161 -49 -185 -48 -897 0 -544 3 -692 15 -765
8 -49 20 -100 27 -112 7 -12 12 -29 12 -38 0 -28 50 -134 119 -251 43 -73 225
-257 306 -309 66 -44 187 -105 205 -105 7 0 26 -7 43 -15 18 -8 162 -57 322
-110 159 -53 294 -100 300 -104 5 -5 24 -11 40 -14 35 -6 116 -33 162 -53 17
-8 39 -14 48 -14 9 0 29 -6 43 -14 15 -7 61 -24 102 -36 41 -12 87 -29 102
-36 14 -8 37 -14 50 -14 13 0 32 -6 43 -14 11 -7 38 -16 60 -20 22 -4 45 -12
50 -16 20 -16 218 -40 330 -40 166 0 335 29 443 76 18 8 37 14 43 14 6 0 25 6
42 14 18 8 68 25 112 39 44 14 94 31 110 36 17 6 71 25 120 42 50 17 108 35
130 40 21 6 44 13 50 17 5 4 44 18 85 31 41 13 87 30 102 37 14 8 34 14 43 14
9 0 31 6 48 13 18 8 66 24 107 37 41 13 89 28 105 35 17 7 62 23 100 35 39 13
79 29 90 37 11 7 26 13 35 13 8 0 39 16 69 35 29 19 55 35 58 35 28 0 262 226
285 275 6 14 14 25 18 25 8 0 111 207 130 260 12 35 33 130 50 225 11 63 11
1310 0 1385 -13 95 -32 174 -46 202 -8 14 -14 33 -14 42 0 17 -64 154 -95 201
-132 206 -335 372 -540 442 -33 11 -85 29 -115 39 -76 26 -449 28 -520 3 -25
-9 -79 -26 -120 -39 -41 -12 -87 -29 -102 -36 -14 -8 -34 -14 -43 -14 -9 0
-31 -6 -48 -14 -18 -8 -66 -24 -107 -36 -41 -12 -83 -26 -93 -31 -9 -5 -133
-48 -274 -95 -205 -68 -262 -83 -282 -76 -15 5 -60 19 -101 32 -41 13 -89 29
-107 37 -17 7 -39 13 -48 13 -9 0 -29 6 -43 14 -15 7 -61 24 -102 37 -41 13
-80 27 -85 31 -6 4 -29 11 -50 17 -22 5 -71 21 -110 35 -38 14 -86 30 -105 35
-19 5 -75 23 -125 40 -49 17 -110 38 -135 47 -53 18 -346 28 -450 14z m1340
-1140 c44 -20 65 -32 122 -68 15 -9 92 -55 170 -102 79 -46 145 -87 148 -90 3
-3 16 -11 30 -18 14 -7 39 -21 55 -32 17 -11 39 -25 50 -30 11 -6 36 -21 57
-33 20 -12 85 -51 145 -86 150 -89 182 -116 211 -179 31 -68 26 -130 -15 -195
-32 -52 -56 -73 -131 -113 -29 -16 -83 -46 -120 -66 -37 -20 -80 -44 -97 -53
-16 -8 -43 -23 -60 -33 -16 -10 -57 -33 -90 -52 -112 -61 -170 -93 -210 -116
-22 -13 -53 -30 -70 -38 -16 -9 -57 -31 -90 -50 -130 -76 -164 -88 -225 -84
-68 5 -130 42 -175 106 l-30 44 4 556 c3 522 4 560 22 606 30 74 95 130 174
150 32 8 77 -1 125 -24z"/>
</g>
</svg>
